<?xml version="1.0" encoding="UTF-8"?>
<svg xmlns="http://www.w3.org/2000/svg" xmlns:xlink="http://www.w3.org/1999/xlink" width="2495.58" height="3304.66" viewBox="0 0 2495.58 3304.66">
<defs>
<clipPath id="clip-0">
<path clip-rule="nonzero" d="M 0 0 L 2495.578125 0 L 2495.578125 3304.660156 L 0 3304.660156 Z M 0 0 "/>
</clipPath>
<clipPath id="clip-1">
<path clip-rule="evenodd" d="M 2221.890625 1296.308594 C 2194.230469 1296.308594 2171.828125 1273.910156 2171.828125 1246.25 C 2171.828125 908.851562 1988.308594 598.078125 1692.910156 435.148438 C 1635.121094 403.289062 1683.558594 315.660156 1741.210938 347.480469 C 2068.609375 527.988281 2271.949219 872.378906 2271.949219 1246.25 C 2271.949219 1273.910156 2249.550781 1296.308594 2221.890625 1296.308594 Z M 1361.78125 1552.480469 L 1153.480469 1552.480469 C 1109.03125 1552.480469 1086.648438 1498.449219 1118.078125 1467 C 1172.878906 1412.140625 1286.398438 1356.660156 1286.398438 1319.441406 C 1286.398438 1251.980469 1183.898438 1251.949219 1183.898438 1319.441406 C 1183.898438 1385.371094 1083.761719 1385.371094 1083.761719 1319.441406 C 1083.761719 1235.96875 1151.671875 1168.03125 1235.140625 1168.03125 C 1349.148438 1168.03125 1475.171875 1322.210938 1302.578125 1452.328125 C 1343.050781 1452.328125 1411.871094 1441.929688 1411.871094 1502.398438 C 1411.871094 1530.070312 1389.441406 1552.480469 1361.78125 1552.480469 Z M 633.664062 1452.359375 L 860.007812 1452.359375 C 962.652344 1452.359375 962.664062 1296.308594 860.007812 1296.308594 L 633.664062 1296.308594 Z M 861.242188 1196.160156 C 963.046875 1194.570312 961.929688 1040.128906 860.007812 1040.128906 L 633.664062 1040.121094 L 633.664062 1196.148438 Z M 533.527344 1246.210938 L 533.527344 1502.398438 C 533.527344 1530.070312 555.933594 1552.480469 583.601562 1552.480469 L 860.007812 1552.480469 C 1019.839844 1552.480469 1098.339844 1356.96875 983.714844 1246.230469 C 1098.351562 1135.410156 1019.820312 939.980469 860.007812 939.980469 L 583.601562 939.980469 C 555.933594 939.980469 533.527344 962.390625 533.527344 990.058594 Z M 1557.558594 1452.359375 L 1557.558594 1296.308594 L 1783.921875 1296.308594 C 1886.539062 1296.308594 1886.539062 1452.359375 1783.921875 1452.359375 Z M 1785.148438 1196.160156 L 1557.558594 1196.148438 L 1557.558594 1040.121094 L 1783.921875 1040.128906 C 1885.800781 1040.128906 1886.929688 1194.570312 1785.148438 1196.160156 Z M 1457.410156 1246.210938 L 1457.410156 990.058594 C 1457.410156 962.390625 1479.839844 939.980469 1507.5 939.980469 L 1783.921875 939.980469 C 1943.738281 939.980469 2022.21875 1135.441406 1907.601562 1246.230469 C 2022.199219 1356.949219 1943.769531 1552.480469 1783.921875 1552.480469 L 1507.5 1552.480469 C 1479.839844 1552.480469 1457.410156 1530.070312 1457.410156 1502.398438 Z M 1247.769531 100.148438 C 614.976562 100.148438 100.136719 614.28125 100.136719 1246.25 C 100.136719 1878.21875 614.976562 2392.339844 1247.769531 2392.339844 C 1880.601562 2392.339844 2395.449219 1878.199219 2395.449219 1246.238281 C 2395.449219 614.28125 1880.601562 100.148438 1247.769531 100.148438 Z M 794.867188 2407.5 L 794.867188 3254.53125 C 794.867188 3292.929688 836.617188 3317.171875 869.910156 3297.890625 L 1247.769531 3080.039062 L 1625.640625 3297.859375 C 1658.660156 3316.960938 1700.761719 3293.351562 1700.761719 3254.53125 L 1700.761719 2407.46875 C 2165.53125 2226 2495.578125 1773.921875 2495.578125 1246.25 C 2495.578125 559.058594 1935.828125 0 1247.769531 0 C 559.742188 0 0 559.039062 0 1246.238281 C 0 1773.949219 330.101562 2226.050781 794.867188 2407.5 Z M 1247.769531 2492.488281 C 1125.300781 2492.488281 1006.921875 2474.679688 895.003906 2441.671875 L 895.003906 3167.851562 L 1222.808594 2978.871094 C 1238.308594 2969.921875 1257.339844 2969.921875 1272.820312 2978.871094 L 1600.640625 3167.851562 L 1600.640625 2441.671875 C 1488.691406 2474.679688 1370.289062 2492.488281 1247.769531 2492.488281 Z M 778.453125 2151.21875 C 770.296875 2151.21875 761.996094 2149.25 754.339844 2145.03125 C 426.984375 1964.5 223.621094 1620.128906 223.621094 1246.261719 C 223.621094 1180.339844 323.773438 1180.328125 323.773438 1246.261719 C 323.773438 1583.671875 507.289062 1894.429688 802.695312 2057.328125 C 847.949219 2082.28125 829.773438 2151.21875 778.453125 2151.21875 "/>
</clipPath>
</defs>
<g clip-path="url(#clip-0)">
<g clip-path="url(#clip-1)">
<path fill-rule="nonzero" fill="url(#linear-pattern-0)" d="M 0 0 L 0 3304.660156 L 2495.578125 3304.660156 L 2495.578125 0 Z M 0 0 "/>
</g>
</g>
</svg>
