<svg width="91.000000" height="30.000000" viewBox="0 0 91 30" fill="none" xmlns="http://www.w3.org/2000/svg" xmlns:xlink="http://www.w3.org/1999/xlink">
	<desc>
			Created with Pixso.
	</desc>
	<defs>
		<clipPath id="clip2_1">
			<rect id="фрейм 1" width="91.000000" height="30.000000" fill="white" fill-opacity="0"/>
		</clipPath>
		<linearGradient x1="14.500010" y1="3.999989" x2="28.999994" y2="29.000002" id="paint_linear_2_22_0" gradientUnits="userSpaceOnUse">
			<stop stop-color="#000F8E"/>
			<stop offset="0.687023" stop-color="#9800AA"/>
		</linearGradient>
		<linearGradient x1="19.923077" y1="13.500000" x2="23.000000" y2="22.000000" id="paint_linear_2_27_0" gradientUnits="userSpaceOnUse">
			<stop stop-color="#000F8E"/>
			<stop offset="1.000000" stop-color="#9800AA"/>
		</linearGradient>
		<linearGradient x1="29.692308" y1="13.500000" x2="32.000000" y2="22.000000" id="paint_linear_2_76_0" gradientUnits="userSpaceOnUse">
			<stop stop-color="#000F8E"/>
			<stop offset="1.000000" stop-color="#9800AA"/>
		</linearGradient>
		<linearGradient x1="52.227272" y1="10.874998" x2="75.272728" y2="27.125002" id="paint_linear_2_34_0" gradientUnits="userSpaceOnUse">
			<stop stop-color="#9800AA"/>
			<stop offset="1.000000" stop-color="#000F8E"/>
		</linearGradient>
		<linearGradient x1="46.500011" y1="11.499992" x2="71.500000" y2="27.500000" id="paint_linear_2_34_1" gradientUnits="userSpaceOnUse">
			<stop stop-color="#9800AA"/>
			<stop stop-color="#9800AA" stop-opacity="0.862745"/>
			<stop offset="1.000000" stop-color="#000F8E"/>
		</linearGradient>
		<linearGradient x1="54.863636" y1="18.875000" x2="56.636364" y2="35.125000" id="paint_linear_2_77_0" gradientUnits="userSpaceOnUse">
			<stop stop-color="#9800AA"/>
			<stop offset="1.000000" stop-color="#000F8E"/>
		</linearGradient>
		<linearGradient x1="60.863636" y1="16.875000" x2="62.636364" y2="33.125000" id="paint_linear_2_78_0" gradientUnits="userSpaceOnUse">
			<stop stop-color="#9800AA"/>
			<stop offset="1.000000" stop-color="#000F8E"/>
		</linearGradient>
	</defs>
	<rect id="фрейм 1" width="91.000000" height="30.000000" fill="#FFFFFF" fill-opacity="1.000000"/>
	<g clip-path="url(#clip2_1)">
		<circle id="Эллипс 1" cx="24.000000" cy="15.000000" r="14.000000" fill="url(#paint_linear_2_22_0)" fill-opacity="1.000000"/>
		<circle id="Эллипс 1" cx="25.000000" cy="14.000000" r="12.000000" fill="#FFFFFF" fill-opacity="1.000000"/>
		<path id="i" d="M19.13 10Q19.37 9.78 19.37 9.31C19.37 8.96 19.16 8.79 18.74 8.79Q18.37 8.79 18.17 8.98Q17.94 9.19 17.94 9.64Q17.94 9.87 18.05 9.99Q18.2 10.18 18.57 10.18Q18.94 10.18 19.13 10ZM17.04 19.14C17.1 19.17 17.2 19.19 17.34 19.19Q17.82 19.19 17.95 18.98Q17.99 18.92 18 18.84L18.81 12.18Q18.81 12.11 18.78 12.06Q18.69 11.9 18.3 11.9Q17.96 11.9 17.83 12.06Q17.77 12.14 17.76 12.25L16.96 18.91Q16.96 19.08 17.04 19.13Q17.04 19.13 17.04 19.14Z" fill="#000F8E" fill-opacity="1.000000" fill-rule="evenodd"/>
		<path id="nt" d="M24.8 15.05L24.33 15.05Q24.3 15.05 24.28 15.06Q24.22 15.08 24.17 15.15Q24.12 15.21 24.11 15.27Q24.1 15.31 24.1 15.35Q24.1 15.5 24.17 15.56Q24.21 15.59 24.28 15.59L24.73 15.59L24.52 17.34Q24.47 17.8 24.47 18.14Q24.47 18.48 24.56 18.79Q24.64 19.09 24.76 19.11Q24.77 19.11 24.77 19.11Q24.91 19.11 25.05 19.04Q25.18 18.99 25.2 18.91Q25.2 18.9 25.2 18.88Q25.2 18.84 25.13 18.56Q25.12 18.51 25.12 18.47Q25.07 18.22 25.07 17.96Q25.07 17.66 25.11 17.34L25.31 15.59L26.07 15.59Q26.1 15.59 26.12 15.58Q26.19 15.56 26.24 15.49Q26.3 15.41 26.31 15.32Q26.31 15.31 26.31 15.29Q26.31 15.14 26.24 15.08Q26.2 15.05 26.13 15.05L25.39 15.05L25.55 13.65Q25.55 13.59 25.53 13.57Q25.52 13.57 25.52 13.57Q25.49 13.56 25.36 13.56Q25.23 13.56 25.1 13.63Q25 13.68 24.96 13.76Q24.95 13.79 24.95 13.82L24.8 15.05ZM22.48 16.05L22.47 16.17L22.13 18.95Q22.13 19.01 22.16 19.04Q22.21 19.11 22.34 19.11Q22.63 19.11 22.71 18.98Q22.73 18.95 22.73 18.91Q23.1 16.08 23.1 16Q23.1 15.65 22.94 15.41Q22.87 15.31 22.77 15.22Q22.45 14.94 21.84 14.94Q21.57 14.94 21.34 15.03Q20.9 15.19 20.58 15.66L20.53 15.66L20.6 15.1Q20.6 15.06 20.59 15.03Q20.53 14.94 20.31 14.94Q20.12 14.94 20.04 15.03Q20.01 15.08 20 15.14L19.55 18.95Q19.55 19.04 19.59 19.07Q19.59 19.07 19.59 19.08Q19.64 19.11 19.76 19.11Q20.04 19.11 20.11 18.98Q20.13 18.95 20.14 18.91L20.32 17.43Q20.43 16.55 20.8 16.01Q21.03 15.68 21.34 15.55Q21.53 15.47 21.76 15.47Q22.2 15.47 22.37 15.68Q22.48 15.82 22.48 16.05Z" fill="url(#paint_linear_2_27_0)" fill-opacity="1.000000" fill-rule="evenodd"/>
		<path id="+" d="M29.75 15.95Q29.78 15.97 29.83 15.97L31.38 15.97L31.21 17.39Q31.17 17.7 31.17 17.71Q31.17 17.75 31.19 17.79Q31.24 17.87 31.42 17.87Q31.58 17.87 31.65 17.79Q31.68 17.74 31.69 17.68L31.91 15.97L33.48 15.97Q33.51 15.97 33.55 15.96Q33.6 15.94 33.63 15.89Q33.67 15.84 33.69 15.79Q33.7 15.75 33.7 15.7Q33.7 15.6 33.65 15.53Q33.65 15.52 33.65 15.52Q33.62 15.47 33.58 15.45Q33.55 15.44 33.52 15.44L31.97 15.44Q32.16 13.83 32.16 13.78L32.16 13.78Q32.16 13.73 32.09 13.69Q32.07 13.68 32.05 13.67Q31.99 13.64 31.91 13.64Q31.75 13.64 31.68 13.73Q31.64 13.77 31.64 13.83L31.45 15.44L29.88 15.44Q29.8 15.44 29.75 15.48Q29.67 15.55 29.67 15.71Q29.67 15.9 29.75 15.95Z" fill="url(#paint_linear_2_76_0)" fill-opacity="1.000000" fill-rule="evenodd"/>
		<path id="Expert" d="M46.66 11.39L42.8 11.39Q42.72 11.39 42.66 11.43Q42.55 11.51 42.53 11.74L41.58 19.58Q41.56 19.68 41.56 19.74Q41.56 19.83 41.61 19.89Q41.69 20 41.9 20L45.93 20Q45.99 20 46.04 19.97Q46.09 19.95 46.13 19.9Q46.15 19.89 46.16 19.87Q46.21 19.78 46.21 19.66Q46.21 19.48 46.13 19.41Q46.07 19.36 45.96 19.36L42.38 19.36L42.83 15.79L45.66 15.79Q45.87 15.79 45.95 15.7Q46.03 15.62 46.03 15.41Q46.03 15.32 45.99 15.26Q45.91 15.16 45.68 15.16L42.91 15.16L43.25 12.02L46.61 12.02Q46.82 12.02 46.89 11.95Q46.97 11.87 46.97 11.66Q46.97 11.55 46.92 11.48Q46.84 11.39 46.66 11.39ZM77.82 15.07L77.23 15.07Q77.2 15.07 77.17 15.07Q77.09 15.1 77.03 15.19Q76.98 15.26 76.96 15.34Q76.95 15.39 76.95 15.44Q76.95 15.63 77.03 15.7Q77.09 15.73 77.17 15.73L77.73 15.73L77.48 17.92Q77.41 18.5 77.41 18.92Q77.41 19.35 77.52 19.74Q77.62 20.11 77.77 20.13Q77.78 20.13 77.79 20.13Q77.95 20.13 78.14 20.05Q78.3 19.99 78.32 19.89Q78.33 19.87 78.33 19.86Q78.33 19.8 78.24 19.45Q78.23 19.39 78.22 19.34Q78.15 19.03 78.15 18.71Q78.15 18.33 78.21 17.92L78.46 15.73L79.41 15.73Q79.44 15.73 79.47 15.73Q79.55 15.71 79.62 15.62Q79.7 15.51 79.71 15.41Q79.71 15.39 79.71 15.37Q79.71 15.18 79.62 15.11Q79.57 15.07 79.49 15.07L78.55 15.07L78.76 13.32Q78.76 13.24 78.73 13.22Q78.73 13.22 78.72 13.22Q78.68 13.2 78.52 13.2Q78.36 13.2 78.19 13.29Q78.07 13.35 78.03 13.45Q78.01 13.49 78.01 13.53L77.82 15.07ZM73.51 15.66Q73.72 15.59 73.94 15.59Q74.08 15.59 74.18 15.53Q74.26 15.48 74.32 15.4Q74.41 15.28 74.41 15.07Q74.41 14.99 74.37 14.95Q74.31 14.86 74.12 14.86Q73.99 14.86 73.87 14.87Q73.51 14.93 73.18 15.14Q72.99 15.25 72.83 15.4Q72.61 15.61 72.45 15.87L72.39 15.87L72.49 15.12Q72.49 15.08 72.47 15.04Q72.41 14.92 72.13 14.92Q71.89 14.92 71.8 15.04Q71.75 15.1 71.74 15.18L71.18 19.93Q71.18 20.05 71.23 20.09Q71.23 20.09 71.23 20.1Q71.3 20.13 71.44 20.13Q71.79 20.13 71.88 19.98Q71.91 19.94 71.92 19.89L72.15 18.04Q72.26 17.04 72.74 16.31Q73.07 15.81 73.51 15.66ZM53.72 14.92Q53.56 14.92 53.01 15.48Q52.45 16.04 51.79 16.88L51.35 15.91Q51.15 15.44 50.85 15.19Q50.56 14.92 50.33 14.92Q50.23 14.92 50.08 15.1Q49.92 15.27 49.92 15.39Q49.92 15.51 50.18 15.65Q50.29 15.72 50.46 15.94Q50.64 16.17 50.79 16.53L51.26 17.51Q50.33 18.64 49.36 19.51Q49.18 19.67 49.18 19.78Q49.18 19.89 49.29 20.01Q49.38 20.09 49.47 20.12Q49.52 20.13 49.57 20.13Q49.72 20.13 50.3 19.57Q50.87 18.99 51.54 18.13L52.06 19.23Q52.28 19.69 52.56 19.96Q52.84 20.21 53.07 20.21Q53.17 20.21 53.33 20.04Q53.48 19.87 53.48 19.75Q53.48 19.62 53.24 19.48Q53.13 19.41 52.95 19.19Q52.77 18.96 52.61 18.63L52.07 17.5Q52.96 16.43 53.96 15.55Q54.12 15.41 54.12 15.3Q54.12 15.19 54 15.06Q53.93 14.97 53.83 14.94Q53.78 14.92 53.72 14.92ZM56.64 23.41Q56.7 23.5 56.87 23.5Q57.23 23.5 57.32 23.34Q57.35 23.3 57.36 23.24L57.78 20.13Q58.61 20.13 59.26 19.91Q59.93 19.68 60.32 19.34Q60.5 19.18 60.65 19Q60.84 18.78 60.99 18.52Q61.16 18.21 61.27 17.89Q61.45 17.34 61.45 16.74Q61.45 15.86 61.02 15.4Q61.01 15.39 61 15.39Q60.78 15.16 60.51 15.04Q60.23 14.92 59.89 14.92Q59.57 14.92 59.28 15.03Q58.71 15.23 58.28 15.83L58.34 15.12Q58.34 15.05 58.31 15Q58.25 14.92 58.1 14.92Q57.85 14.92 57.74 14.98Q57.72 14.98 57.71 14.99Q57.63 15.05 57.6 15.18L56.61 23.3Q56.61 23.37 56.64 23.41ZM64.67 16.6Q64.4 17.19 64.4 17.92Q64.4 18.95 64.91 19.52Q64.93 19.54 64.95 19.56Q65.01 19.62 65.07 19.67Q65.6 20.13 66.54 20.13Q67.02 20.13 67.55 19.88Q68.07 19.61 68.07 19.44Q68.07 19.43 68.07 19.42Q68.07 19.28 67.99 19.14Q67.93 19.01 67.84 18.99Q67.82 18.98 67.81 18.98L67.63 19.12Q67.46 19.26 67.17 19.38Q67 19.46 66.82 19.49Q66.7 19.51 66.58 19.51Q66.07 19.51 65.75 19.27Q65.65 19.2 65.56 19.1Q65.22 18.68 65.22 17.93Q66.56 17.93 67.47 17.38Q68.11 17 68.3 16.45Q68.38 16.21 68.38 15.94Q68.38 15.63 68.24 15.41Q68.16 15.28 68.04 15.19L68.03 15.19Q67.69 14.92 67.13 14.92Q67.04 14.92 66.94 14.93Q66.12 15 65.35 15.64Q64.94 16 64.67 16.6ZM67.56 15.73Q67.65 15.86 67.65 16.04Q67.65 16.15 67.63 16.24Q67.52 16.67 66.92 16.98Q66.18 17.35 65.25 17.35Q65.36 16.75 65.68 16.33Q65.81 16.16 65.97 16.02Q66.56 15.52 67.1 15.52Q67.31 15.52 67.45 15.62Q67.48 15.64 67.5 15.66Q67.54 15.69 67.56 15.73ZM59.13 19.3Q58.66 19.51 58.1 19.51Q57.92 19.51 57.85 19.49L58 18.11Q58.24 16.08 59.17 15.68Q59.4 15.59 59.66 15.59Q59.96 15.59 60.16 15.72Q60.3 15.8 60.39 15.95Q60.4 15.95 60.4 15.95Q60.64 16.31 60.64 16.84Q60.64 17.43 60.43 17.93Q60.25 18.36 59.91 18.73Q59.56 19.1 59.13 19.3Z" fill="url(#paint_linear_2_34_0)" fill-opacity="1.000000" fill-rule="evenodd"/>
		<path id="Expert" d="M42.8 11.39L46.66 11.39Q46.97 11.39 46.97 11.66Q46.97 11.87 46.89 11.95Q46.82 12.02 46.61 12.02L43.25 12.02L42.91 15.16L45.68 15.16Q46.03 15.16 46.03 15.41Q46.03 15.62 45.95 15.7Q45.87 15.79 45.66 15.79L42.83 15.79L42.38 19.36L45.96 19.36Q46.21 19.36 46.21 19.66Q46.21 19.8 46.13 19.9Q46.06 20 45.93 20L41.9 20Q41.56 20 41.56 19.74Q41.56 19.68 41.58 19.58L42.53 11.74Q42.56 11.39 42.8 11.39ZM53.01 15.48Q53.56 14.92 53.72 14.92Q53.88 14.92 54 15.06Q54.12 15.19 54.12 15.3Q54.12 15.41 53.96 15.55Q52.96 16.43 52.07 17.5L52.61 18.63Q52.77 18.96 52.95 19.19Q53.13 19.41 53.24 19.48Q53.48 19.62 53.48 19.75Q53.48 19.87 53.33 20.04Q53.17 20.21 53.07 20.21Q52.84 20.21 52.56 19.96Q52.28 19.69 52.06 19.23L51.54 18.13Q50.87 18.99 50.3 19.57Q49.72 20.13 49.57 20.13Q49.41 20.13 49.29 20.01Q49.18 19.89 49.18 19.78Q49.18 19.67 49.36 19.51Q50.33 18.64 51.26 17.51L50.79 16.53Q50.64 16.17 50.46 15.94Q50.29 15.72 50.18 15.65Q49.92 15.51 49.92 15.39Q49.92 15.27 50.08 15.1Q50.23 14.92 50.33 14.92Q50.56 14.92 50.85 15.19Q51.15 15.44 51.35 15.91L51.79 16.88Q52.45 16.04 53.01 15.48ZM56.87 23.5Q56.61 23.5 56.61 23.3L57.6 15.18Q57.64 15.02 57.74 14.98Q57.85 14.92 58.1 14.92Q58.34 14.92 58.34 15.12L58.28 15.83Q58.93 14.92 59.89 14.92Q60.55 14.92 61 15.39Q61.45 15.84 61.45 16.74Q61.45 17.7 60.99 18.52Q60.72 18.98 60.32 19.34Q59.93 19.68 59.26 19.91Q58.61 20.13 57.78 20.13L57.36 23.24Q57.33 23.5 56.87 23.5ZM58.1 19.51Q59.18 19.51 59.91 18.73Q60.64 17.93 60.64 16.84Q60.64 16.31 60.39 15.95Q60.15 15.59 59.66 15.59Q58.3 15.59 58 18.11L57.85 19.49Q57.92 19.51 58.1 19.51ZM67.65 16.04Q67.65 15.8 67.5 15.66Q67.34 15.52 67.1 15.52Q66.56 15.52 65.97 16.02Q65.4 16.52 65.25 17.35Q66.18 17.35 66.92 16.98Q67.65 16.6 67.65 16.04ZM64.4 17.92Q64.4 17.19 64.67 16.6Q64.94 16 65.35 15.64Q66.21 14.92 67.13 14.92Q67.69 14.92 68.04 15.19Q68.38 15.45 68.38 15.94Q68.38 16.83 67.47 17.38Q66.56 17.93 65.22 17.93Q65.22 18.68 65.56 19.1Q65.92 19.51 66.58 19.51Q66.89 19.51 67.17 19.38Q67.46 19.26 67.63 19.12L67.81 18.98Q67.92 18.98 67.99 19.14Q68.07 19.28 68.07 19.44Q68.07 19.61 67.55 19.88Q67.02 20.13 66.54 20.13Q65.5 20.13 64.95 19.56Q64.4 18.98 64.4 17.92ZM73.94 15.59Q73.21 15.59 72.74 16.31Q72.26 17.04 72.15 18.04L71.92 19.89Q71.88 20.13 71.44 20.13Q71.3 20.13 71.23 20.1Q71.18 20.06 71.18 19.93L71.74 15.18Q71.77 14.92 72.13 14.92Q72.49 14.92 72.49 15.12L72.39 15.87L72.45 15.87Q72.73 15.41 73.18 15.14Q73.62 14.86 74.12 14.86Q74.41 14.86 74.41 15.07Q74.41 15.28 74.32 15.4Q74.19 15.59 73.94 15.59ZM77.23 15.07L77.82 15.07L78.01 13.53Q78.03 13.37 78.19 13.29Q78.36 13.2 78.52 13.2Q78.68 13.2 78.72 13.22Q78.76 13.23 78.76 13.32L78.55 15.07L79.49 15.07Q79.71 15.07 79.71 15.37Q79.71 15.5 79.62 15.62Q79.53 15.73 79.41 15.73L78.46 15.73L78.21 17.92Q78.15 18.33 78.15 18.71Q78.15 19.08 78.24 19.45Q78.33 19.8 78.33 19.86Q78.33 19.98 78.14 20.05Q77.95 20.13 77.79 20.13Q77.62 20.13 77.52 19.74Q77.41 19.35 77.41 18.92Q77.41 18.5 77.48 17.92L77.73 15.73L77.17 15.73Q76.95 15.73 76.95 15.44Q76.95 15.31 77.03 15.19Q77.11 15.07 77.23 15.07Z" stroke="url(#paint_linear_2_34_1)" stroke-opacity="1.000000" stroke-width="0.300000"/>
		<path id="Текст" d="" fill="url(#paint_linear_2_77_0)" fill-opacity="1.000000" fill-rule="evenodd"/>
		<path id="Текст" d="" fill="url(#paint_linear_2_78_0)" fill-opacity="1.000000" fill-rule="evenodd"/>
	</g>
</svg>
