<svg width="212" height="32" viewBox="0 0 212 32" fill="none" xmlns="http://www.w3.org/2000/svg">
<path d="M12.7614 27.25V23.415C12.7614 20.5225 12.3986 19.6775 11.2774 17.2725L5.40746 4.66248H1.25232L8.77114 20.7825V27.25H12.7614ZM15.3666 15.5825L20.2472 4.66248H16.191L11.3104 15.5825H15.3666ZM57.0499 27.575C58.8967 27.575 60.4136 26.73 61.4689 25.1375L61.6667 27.25H65.2942V4.66248H61.3699V12.82C60.3806 11.3575 58.9296 10.5775 57.2148 10.5775C53.4224 10.5775 50.7842 13.73 50.7842 19.19C50.7842 24.585 53.3565 27.575 57.0499 27.575ZM81.1563 26.145V22.9925C79.9362 23.805 77.8916 24.52 75.9789 24.52C73.1099 24.52 72.0216 23.1875 71.8567 20.4575H81.3212V18.41C81.3212 12.7225 78.782 10.5775 74.8577 10.5775C70.076 10.5775 67.8005 14.185 67.8005 19.125C67.8005 24.8125 70.6366 27.575 75.6491 27.575C78.1554 27.575 80.0021 26.925 81.1563 26.145ZM31.7893 16.1025C31.7893 12.1375 29.7447 10.6425 25.5896 10.6425C23.0173 10.6425 20.9398 11.715 19.7526 12.56V15.9075C21.0057 14.9 22.9184 13.73 25.1279 13.73C27.0076 13.73 27.865 14.38 27.865 16.135V17.175H27.2384C21.2366 17.175 18.5654 19.0925 18.5654 22.505C18.5654 25.6575 20.61 27.4775 23.6439 27.4775C25.9523 27.4775 26.9416 26.73 27.7001 25.95H27.865C27.898 26.3725 28.0299 26.925 28.1618 27.25H31.9872C31.8553 25.9175 31.7893 24.585 31.7893 23.2525V16.1025ZM38.9124 15.5175C39.6379 14.64 40.7921 13.8925 42.2101 13.8925C43.5952 13.8925 44.2217 14.4775 44.2217 15.7125V27.25H48.146V15.3225C48.146 12.0725 46.827 10.6425 43.6282 10.6425C41.2868 10.6425 39.9017 11.4875 39.1103 12.2675H38.9124L38.8135 10.9025H34.9881V27.25H38.9124V15.5175ZM93.226 27.25H97.645L92.2367 18.8325L96.9195 10.9025H92.9952L90.1591 15.8425L86.9933 10.9025H82.5744L87.5869 18.735L82.3765 27.25H86.3667L89.6975 21.725L93.226 27.25ZM58.2041 13.6325C60.3147 13.6325 61.3699 15.29 61.3699 19.06C61.3699 22.8625 60.2487 24.52 58.0392 24.52C55.8957 24.52 54.8404 22.895 54.8404 19.19C54.8404 15.3225 55.9617 13.6325 58.2041 13.6325ZM74.7917 13.6325C76.7374 13.6325 77.331 15.225 77.331 17.2725V17.5975H71.8567C71.9557 14.9975 72.912 13.6325 74.7917 13.6325ZM27.865 23.35C27.3703 24.065 26.447 24.65 25.0619 24.65C23.4131 24.65 22.5886 23.7075 22.5886 22.2775C22.5886 20.3925 23.9407 19.7425 27.3044 19.7425H27.865V23.35Z" fill="#262626"/>
<mask id="mask0_6136_29432" style="mask-type:luminance" maskUnits="userSpaceOnUse" x="103" y="1" width="32" height="30">
<path d="M134.303 1H103.862V31H134.303V1Z" fill="white"/>
</mask>
<g mask="url(#mask0_6136_29432)">
<path d="M108.936 16C108.936 10.4772 113.479 6 119.083 6C124.687 6 129.23 10.4772 129.23 16C129.23 21.5228 124.687 26 119.083 26C113.479 26 108.936 21.5228 108.936 16Z" fill="white"/>
<path d="M119.083 31C115.3 30.9099 113.803 28.4182 113.347 26.0119C113.098 24.7036 113.207 22.5285 113.347 21.7521C113.573 20.4867 113.938 18.668 114.343 16.5576C114.921 13.5336 116.458 11.8136 119.775 11.2002L125.199 10.1792C125.343 9.38562 125.615 7.28395 125.368 5.98855C124.906 3.55647 123.004 1.0386 119.144 1C110.735 1 103.862 7.71289 103.862 16C103.862 24.2871 110.674 31 119.083 31Z" fill="url(#paint0_linear_6136_29432)"/>
<path d="M119.083 1C122.864 1.09008 124.737 3.5865 125.193 5.99285C125.442 7.30112 124.959 9.47155 124.819 10.2479C124.592 11.5133 124.227 13.332 123.822 15.4424C123.244 18.4664 121.707 20.1864 118.391 20.7998L113.343 21.7766C113.199 22.5702 112.725 24.7149 112.972 26.0103C113.434 28.4424 115.161 30.9614 119.022 31C127.431 31 134.303 24.2871 134.303 16C134.303 7.7129 127.491 1 119.083 1Z" fill="url(#paint1_linear_6136_29432)"/>
</g>
<path d="M149.467 27.575C151.94 27.575 153.623 26.6975 154.644 26.015V22.8625C153.325 23.805 151.874 24.52 149.764 24.52C146.136 24.52 144.421 21.6275 144.421 15.9725C144.421 10.155 146.07 7.39253 149.962 7.39253C151.776 7.39253 153.457 8.17253 154.644 8.92003V5.76752C153.589 5.02002 151.874 4.33752 149.764 4.33752C143.663 4.33752 140.366 8.75753 140.366 15.9725C140.366 23.3825 143.795 27.575 149.467 27.575Z" fill="#262626"/>
<path d="M161.213 4.66248H157.289V27.25H161.213V4.66248Z" fill="#262626"/>
<path d="M171.164 10.5775C166.844 10.5775 163.843 13.6 163.843 19.0925C163.843 24.5525 166.844 27.575 171.164 27.575C175.484 27.575 178.485 24.5525 178.485 19.06C178.485 13.6 175.484 10.5775 171.164 10.5775ZM171.164 24.52C168.987 24.52 167.899 22.8625 167.899 19.0925C167.899 15.29 168.987 13.6325 171.164 13.6325C173.34 13.6325 174.429 15.29 174.429 19.06C174.429 22.8625 173.34 24.52 171.164 24.52Z" fill="#262626"/>
<path d="M190.189 22.635C189.463 23.5125 188.309 24.26 186.891 24.26C185.506 24.26 184.879 23.675 184.879 22.44V10.9025H180.955V22.83C180.955 26.08 182.274 27.51 185.473 27.51C187.815 27.51 189.2 26.665 189.991 25.885H190.189L190.287 27.25H194.113V10.9025H190.189V22.635Z" fill="#262626"/>
<path d="M203.022 27.575C204.869 27.575 206.385 26.73 207.441 25.1375L207.639 27.25H211.266V4.66248H207.341V12.82C206.352 11.3575 204.901 10.5775 203.186 10.5775C199.394 10.5775 196.756 13.73 196.756 19.19C196.756 24.585 199.328 27.575 203.022 27.575ZM204.175 13.6325C206.286 13.6325 207.341 15.29 207.341 19.06C207.341 22.8625 206.22 24.52 204.011 24.52C201.867 24.52 200.812 22.895 200.812 19.19C200.812 15.3225 201.933 13.6325 204.175 13.6325Z" fill="#262626"/>
<defs>
<linearGradient id="paint0_linear_6136_29432" x1="103.862" y1="31" x2="127.406" y2="2.34377" gradientUnits="userSpaceOnUse">
<stop stop-color="#D2DFFF"/>
<stop offset="1" stop-color="#4E7FFF"/>
</linearGradient>
<linearGradient id="paint1_linear_6136_29432" x1="134.303" y1="0.999998" x2="110.375" y2="28.8274" gradientUnits="userSpaceOnUse">
<stop stop-color="#D2DFFF"/>
<stop offset="1" stop-color="#4E7FFF"/>
</linearGradient>
</defs>
</svg>
